<svg width="272" height="281" viewBox="0 0 372 381" fill="none" xmlns="http://www.w3.org/2000/svg">
<g filter="url(#filter0_i_22_30)">
<g clip-path="url(#clip0_22_30)">
<path d="M0 186C0 83.275 83.275 0 186 0V0C288.725 0 372 83.275 372 186V195C372 297.725 288.725 381 186 381V381C83.275 381 0 297.725 0 195V186Z" fill="#998D8A"/>
<g filter="url(#filter1_f_22_30)">
<ellipse cx="167.854" cy="130.402" rx="204.146" ry="205.241" fill="#BEBEBE"/>
</g>
<g opacity="0.5" filter="url(#filter2_f_22_30)">
<ellipse cx="140.634" cy="102.054" rx="124.756" ry="124.732" fill="white"/>
</g>
<g opacity="0.6" filter="url(#filter3_f_22_30)">
<ellipse rx="52.8904" ry="32.3557" transform="matrix(0.981137 -0.193316 0.191795 0.981435 228.22 348.14)" fill="#ABA9A9"/>
</g>
</g>
</g>
<defs>
<filter id="filter0_i_22_30" x="0" y="0" width="372" height="381" filterUnits="userSpaceOnUse" color-interpolation-filters="sRGB">
<feFlood flood-opacity="0" result="BackgroundImageFix"/>
<feBlend mode="normal" in="SourceGraphic" in2="BackgroundImageFix" result="shape"/>
<feColorMatrix in="SourceAlpha" type="matrix" values="0 0 0 0 0 0 0 0 0 0 0 0 0 0 0 0 0 0 127 0" result="hardAlpha"/>
<feMorphology radius="4" operator="erode" in="SourceAlpha" result="effect1_innerShadow_22_30"/>
<feOffset/>
<feGaussianBlur stdDeviation="15"/>
<feComposite in2="hardAlpha" operator="arithmetic" k2="-1" k3="1"/>
<feColorMatrix type="matrix" values="0 0 0 0 1 0 0 0 0 1 0 0 0 0 1 0 0 0 0.6 0"/>
<feBlend mode="normal" in2="shape" result="effect1_innerShadow_22_30"/>
</filter>
<filter id="filter1_f_22_30" x="-96.2927" y="-134.839" width="528.293" height="530.482" filterUnits="userSpaceOnUse" color-interpolation-filters="sRGB">
<feFlood flood-opacity="0" result="BackgroundImageFix"/>
<feBlend mode="normal" in="SourceGraphic" in2="BackgroundImageFix" result="shape"/>
<feGaussianBlur stdDeviation="30" result="effect1_foregroundBlur_22_30"/>
</filter>
<filter id="filter2_f_22_30" x="-34.1221" y="-72.6786" width="349.512" height="349.464" filterUnits="userSpaceOnUse" color-interpolation-filters="sRGB">
<feFlood flood-opacity="0" result="BackgroundImageFix"/>
<feBlend mode="normal" in="SourceGraphic" in2="BackgroundImageFix" result="shape"/>
<feGaussianBlur stdDeviation="25" result="effect1_foregroundBlur_22_30"/>
</filter>
<filter id="filter3_f_22_30" x="145.953" y="284.771" width="164.535" height="126.739" filterUnits="userSpaceOnUse" color-interpolation-filters="sRGB">
<feFlood flood-opacity="0" result="BackgroundImageFix"/>
<feBlend mode="normal" in="SourceGraphic" in2="BackgroundImageFix" result="shape"/>
<feGaussianBlur stdDeviation="15" result="effect1_foregroundBlur_22_30"/>
</filter>
<clipPath id="clip0_22_30">
<path d="M0 186C0 83.275 83.275 0 186 0V0C288.725 0 372 83.275 372 186V195C372 297.725 288.725 381 186 381V381C83.275 381 0 297.725 0 195V186Z" fill="white"/>
</clipPath>
</defs>
</svg>
